<svg width="130" height="20" viewBox="0 0 130 20" fill="none" xmlns="http://www.w3.org/2000/svg">
<path d="M9.264 17.08C8.448 17.68 7.56 17.968 6.576 17.968C4.872 17.968 4.032 16.936 4.032 14.848V7.432H9.312V6.16H4.032V1.624H2.616V6.16H0.312V7.432H2.592V14.8C2.592 17.608 3.888 19.288 6.456 19.288C7.8 19.288 8.928 18.928 9.864 18.184L9.264 17.08ZM22.3014 8.632C21.2214 6.88 19.3734 5.848 17.2374 5.848C15.3894 5.848 13.8774 6.496 12.6534 7.768C11.4534 9.04 10.8534 10.624 10.8534 12.52C10.8534 14.44 11.4534 16.048 12.6774 17.368C13.9014 18.664 15.4134 19.312 17.2374 19.312C19.3734 19.312 21.2214 18.256 22.3014 16.504V19H23.6934V6.16H22.3014V8.632ZM17.3094 17.992C15.8454 17.992 14.6214 17.464 13.6854 16.432C12.7494 15.4 12.2934 14.104 12.2934 12.568C12.2934 11.056 12.7494 9.76 13.6854 8.728C14.6214 7.696 15.8454 7.168 17.3094 7.168C18.7974 7.168 20.0214 7.696 20.9814 8.728C21.9414 9.76 22.4214 11.032 22.4214 12.52C22.4214 14.056 21.9414 15.352 20.9814 16.408C20.0214 17.464 18.7974 17.992 17.3094 17.992ZM29.0481 0.879999H27.6081V19H29.0481V0.879999ZM44.4718 12.016C44.4718 10.12 43.8958 8.632 42.7678 7.528C41.6398 6.4 40.2238 5.848 38.4958 5.848C36.5758 5.848 35.0398 6.472 33.8638 7.744C32.6878 9.016 32.1118 10.6 32.1118 12.544C32.1118 15.904 34.0558 19.288 38.7838 19.288C40.8958 19.288 42.9358 18.496 44.1838 17.512L43.5118 16.408C42.3598 17.344 40.4638 17.944 38.8078 17.944C35.6638 17.944 33.8158 16 33.5998 13.144H44.3998C44.4478 12.568 44.4718 12.184 44.4718 12.016ZM38.4958 7.168C41.1118 7.168 42.9598 8.968 42.9838 11.824H33.5998C33.8878 9.016 35.8078 7.168 38.4958 7.168ZM48.8762 19V11.8C48.8762 10.264 49.3082 9.112 50.1482 8.344C51.0122 7.552 51.9962 7.168 53.1242 7.168C55.5002 7.168 56.9402 8.824 56.9402 11.512V19H58.3802V11.248C58.3802 9.52 57.9002 8.176 56.9162 7.24C55.9322 6.304 54.7322 5.824 53.2922 5.824C51.2042 5.824 49.5962 6.712 48.8282 8.416V6.16H47.4362V19H48.8762ZM69.2874 17.08C68.4714 17.68 67.5834 17.968 66.5994 17.968C64.8954 17.968 64.0554 16.936 64.0554 14.848V7.432H69.3354V6.16H64.0554V1.624H62.6394V6.16H60.3354V7.432H62.6154V14.8C62.6154 17.608 63.9114 19.288 66.4794 19.288C67.8234 19.288 68.9514 18.928 69.8874 18.184L69.2874 17.08Z" fill="#131313"/>
<path d="M76.6826 4.504C77.9306 4.504 78.9146 3.544 78.9146 2.272C78.9146 0.999999 77.9306 0.0399995 76.6826 0.0399995C75.4106 0.0399995 74.4266 0.999999 74.4266 2.272C74.4266 3.544 75.4106 4.504 76.6826 4.504ZM78.5306 5.848H74.7626V19H78.5306V5.848ZM88.9543 5.512C87.4423 5.512 86.1703 6.064 85.1383 7.144V0.735999H81.3703V19H85.0183V17.536C86.0503 18.736 87.3703 19.336 88.9543 19.336C90.8263 19.336 92.3863 18.688 93.6343 17.368C94.8823 16.048 95.5063 14.416 95.5063 12.424C95.5063 10.456 94.8823 8.824 93.6103 7.504C92.3623 6.184 90.8023 5.512 88.9543 5.512ZM91.6663 12.4C91.6663 13.384 91.3543 14.2 90.7303 14.872C90.1063 15.544 89.3143 15.88 88.3303 15.88C87.3463 15.88 86.5543 15.544 85.9063 14.872C85.2823 14.2 84.9703 13.384 84.9703 12.4C84.9703 11.44 85.2823 10.624 85.9063 9.976C86.5543 9.304 87.3463 8.968 88.3303 8.968C89.3143 8.968 90.1063 9.304 90.7303 9.976C91.3543 10.624 91.6663 11.44 91.6663 12.4ZM110.69 12.112C110.69 10.072 110.066 8.464 108.818 7.288C107.57 6.112 105.986 5.512 104.042 5.512C101.978 5.512 100.298 6.16 99.0257 7.48C97.7537 8.776 97.1057 10.408 97.1057 12.4C97.1057 14.344 97.7297 15.976 98.9537 17.296C100.202 18.616 101.978 19.288 104.306 19.288C106.538 19.288 108.458 18.688 110.066 17.464L108.578 14.896C107.33 15.736 105.962 16.168 104.474 16.168C102.554 16.168 101.354 15.352 100.898 13.696H110.57C110.642 13.096 110.69 12.568 110.69 12.112ZM104.042 8.56C105.602 8.56 106.706 9.496 107.066 11.008H100.874C101.282 9.472 102.506 8.56 104.042 8.56ZM120.343 12.4L124.351 5.848H120.127L117.919 9.688L115.903 5.848H111.607L115.375 12.328L111.127 19H115.423L117.847 14.896L120.127 19H124.471L120.343 12.4ZM127.768 19.384C128.92 19.384 129.832 18.496 129.832 17.272C129.832 16.12 128.92 15.184 127.768 15.184C126.544 15.184 125.632 16.096 125.632 17.272C125.632 18.496 126.544 19.384 127.768 19.384Z" fill="#FA0060"/>
</svg>
