<svg width="33" height="32" viewBox="0 0 33 32" fill="none" xmlns="http://www.w3.org/2000/svg">
<path d="M16.9243 32C25.7609 32 32.9243 24.8366 32.9243 16C32.9243 7.16344 25.7609 0 16.9243 0C8.08776 0 0.924316 7.16344 0.924316 16C0.924316 24.8366 8.08776 32 16.9243 32Z" fill="#FF8484"/>
<path d="M23.7323 14.1281C23.0628 14.652 22.2188 15.2923 19.25 17.4462C18.6678 17.8828 17.5909 18.8433 16.5722 18.8433C15.5244 18.8433 14.4766 17.8828 13.8654 17.4462C10.8966 15.2923 10.0525 14.652 9.38305 14.1281C9.26662 14.0408 9.12109 14.1281 9.12109 14.2736V20.2112C9.12109 20.9971 9.73232 21.6083 10.5182 21.6083H22.6263C23.383 21.6083 24.0233 20.9971 24.0233 20.2112V14.2736C24.0233 14.1281 23.8487 14.0408 23.7323 14.1281ZM16.5722 17.8828C17.2417 17.9119 18.2022 17.0387 18.697 16.6894C22.568 13.8952 22.8591 13.6333 23.7323 12.9348C23.9069 12.8183 24.0233 12.6146 24.0233 12.3817V11.8287C24.0233 11.072 23.383 10.4316 22.6263 10.4316H10.5182C9.73232 10.4316 9.12109 11.072 9.12109 11.8287V12.3817C9.12109 12.6146 9.20841 12.8183 9.38305 12.9348C10.2562 13.6333 10.5473 13.8952 14.4184 16.6894C14.9132 17.0387 15.8737 17.9119 16.5722 17.8828Z" fill="white"/>
</svg>
