<svg width="107" height="107" viewBox="0 0 107 107" fill="none" xmlns="http://www.w3.org/2000/svg">
<circle cx="53.5" cy="53.5" r="41.7969" fill="white"/>
<circle cx="53.5" cy="53.5" r="50.9922" stroke="white" stroke-opacity="0.2" stroke-width="5.01562"/>
<path d="M49.8428 64.4172C51.0314 64.4172 52.0371 63.4572 52.0371 62.2228V46.131C52.0371 44.9424 51.0314 43.9367 49.8428 43.9367H45.4541C44.2198 43.9367 43.2598 44.9424 43.2598 46.131V62.2228C43.2598 63.4572 44.2198 64.4172 45.4541 64.4172H49.8428ZM63.7402 62.2228V46.131C63.7402 44.9424 62.7345 43.9367 61.5459 43.9367H57.1572C55.9229 43.9367 54.9629 44.9424 54.9629 46.131V62.2228C54.9629 63.4572 55.9229 64.4172 57.1572 64.4172H61.5459C62.7345 64.4172 63.7402 63.4572 63.7402 62.2228Z" fill="#FA0060"/>
</svg>
