<svg width="37" height="37" viewBox="0 0 37 37" fill="none" xmlns="http://www.w3.org/2000/svg">
<path d="M1.20215 35.685L3.64225 26.7594C2.14206 24.138 1.35505 21.1692 1.35964 18.1489C1.34161 8.62753 9.02717 0.894531 18.4736 0.894531C23.0568 0.894531 27.3611 2.68286 30.6029 5.94456C33.8447 9.20625 35.6216 13.5371 35.6216 18.1489C35.6216 27.6531 27.937 35.3871 18.4906 35.3871C15.6264 35.3908 12.8081 34.6667 10.3004 33.2828L1.20215 35.685ZM10.7017 30.1786L11.2244 30.4945C13.4173 31.8009 15.922 32.4915 18.4745 32.4935C26.3166 32.4935 32.7129 26.0574 32.7129 18.1669C32.7129 14.3436 31.2319 10.7318 28.548 8.03079C25.8622 5.33169 22.2722 3.82322 18.4726 3.82322C10.6125 3.82322 4.21623 10.2593 4.21623 18.1498C4.21623 20.8508 4.96571 23.4987 6.39543 25.7775L6.72653 26.3221L5.27974 31.6178L10.6998 30.1796L10.7017 30.1786Z" fill="white"/>
<path d="M1.79492 35.0882L4.14774 26.4615C2.69694 23.9313 1.93385 21.0654 1.93438 18.1488C1.93438 8.9785 9.35905 1.5083 18.4734 1.5083C22.9001 1.5083 27.0479 3.24445 30.1844 6.38281C31.7257 7.92926 32.947 9.76446 33.7784 11.7834C34.6098 13.8023 35.0349 15.9654 35.0295 18.1488C35.0295 27.3201 27.6057 34.7903 18.4905 34.7903C15.7202 34.7903 13.0012 34.0882 10.5782 32.7562L1.79492 35.0882Z" fill="url(#paint0_linear_338_2408)"/>
<path d="M1.20215 35.685L3.64225 26.7594C2.14206 24.138 1.35505 21.1692 1.35964 18.1489C1.34161 8.62753 9.02717 0.894531 18.4736 0.894531C23.0568 0.894531 27.3611 2.68286 30.6029 5.94456C33.8447 9.20625 35.6216 13.5371 35.6216 18.1489C35.6216 27.6531 27.937 35.3871 18.4906 35.3871C15.6264 35.3908 12.8081 34.6667 10.3004 33.2828L1.20215 35.685V35.685ZM10.7017 30.1786L11.2244 30.4945C13.4173 31.8009 15.922 32.4915 18.4745 32.4935C26.3166 32.4935 32.7129 26.0574 32.7129 18.1669C32.7129 14.3436 31.2319 10.7318 28.548 8.03079C25.8622 5.33169 22.2722 3.82322 18.4726 3.82322C10.6125 3.82322 4.21623 10.2593 4.21623 18.1498C4.21623 20.8508 4.96571 23.4987 6.39543 25.7775L6.72653 26.3221L5.27974 31.6178L10.6998 30.1796L10.7017 30.1786Z" fill="url(#paint1_linear_338_2408)"/>
<path fill-rule="evenodd" clip-rule="evenodd" d="M14.2036 10.9242C13.8905 10.205 13.5414 10.1879 13.2454 10.1879C12.9835 10.1699 12.7046 10.1699 12.4086 10.1699C12.1297 10.1699 11.6591 10.2752 11.2587 10.7135C10.8574 11.1518 9.75977 12.1869 9.75977 14.3092C9.75977 16.4305 11.2938 18.4826 11.5026 18.7625C11.7113 19.0433 14.4654 23.5326 18.8219 25.2688C22.447 26.7061 23.1794 26.4262 23.964 26.338C24.7476 26.2507 26.4904 25.3039 26.8566 24.2859C27.2048 23.2869 27.2048 22.4103 27.1004 22.2348C26.9961 22.0593 26.6991 21.9539 26.2807 21.7263C25.8453 21.5156 23.7543 20.4645 23.353 20.3231C22.9526 20.1827 22.6737 20.1125 22.3948 20.5337C22.1159 20.972 21.2971 21.9369 21.0353 22.2167C20.7915 22.4976 20.5306 22.5327 20.1122 22.322C19.6758 22.1124 18.3001 21.656 16.6607 20.1827C15.3895 19.0433 14.5356 17.623 14.2738 17.2018C14.0299 16.7635 14.2387 16.5358 14.4654 16.3252C14.657 16.1326 14.9018 15.8167 15.1105 15.571C15.3193 15.3253 15.3885 15.1327 15.546 14.8518C15.6855 14.572 15.6153 14.3082 15.5109 14.0986C15.4065 13.905 14.5868 11.7837 14.2036 10.9242Z" fill="white"/>
<defs>
<linearGradient id="paint0_linear_338_2408" x1="18.4089" y1="35.0863" x2="18.4089" y2="1.50166" gradientUnits="userSpaceOnUse">
<stop stop-color="#20B038"/>
<stop offset="1" stop-color="#60D66A"/>
</linearGradient>
<linearGradient id="paint1_linear_338_2408" x1="18.409" y1="35.6888" x2="18.409" y2="0.899276" gradientUnits="userSpaceOnUse">
<stop stop-color="#F9F9F9"/>
<stop offset="1" stop-color="white"/>
</linearGradient>
</defs>
</svg>
